<?xml version="1.0" encoding="utf-8"?>
<!-- Uploaded to: SVG Repo, www.svgrepo.com, Generator: SVG Repo Mixer Tools -->
<svg width="800px" height="800px" viewBox="0 0 1024 1024" class="icon"  version="1.1" xmlns="http://www.w3.org/2000/svg"><path d="M756.4 113.7c34.5 0 62.5 28 62.5 62.5s-28 62.5-62.5 62.5h-18.5c-9.4 14.8-24.7 24.8-42.1 27.5l16.6 371c0 24-6.8 46.9-19.6 66.9 0.1 0.9-10.2 235.2-10.2 235.2-0.3 11.8-10 21.4-21.9 21.4h-39.1c-5.6 0-10.7-2.1-14.5-5.6-3.3 2.4-7.3 3.8-11.7 3.8h-39.1c-11 0-19.9-8.8-20.1-19.7l-7.8-178h-72.9l-7.9 178.1c-0.3 11.8-10 21.4-21.9 21.4h-39.1c-5.6 0-10.7-2.1-14.5-5.6-3.3 2.4-7.3 3.8-11.7 3.8h-39.1c-11 0-19.9-8.8-20.1-19.7 0 0-13.2-299-13.2-302 0-20 4.7-39.2 13.6-56.6-25.8 7.2-45.3 29.4-48.8 56.5 0.2 0.1 0.4 0.2 0.6 0.4 6.5 4.5 10.9 11.3 12.3 19.1 0.6 3.5 0.6 7 0 10.5l-2.8 15.2c-2.3 13-13.7 22.2-26.5 22.2-1.6 0-3.2-0.1-4.8-0.4-11-2-19.7-10.7-21.7-21.7l-2.8-15.3c-1.4-7.8 0.3-15.7 4.8-22.2 2.4-3.5 5.5-6.3 9.1-8.5 4.7-50.4 47.2-90 98.8-90h7.7c13.5-12.3 30.3-20.8 30.6-21 16.9-8.1 34.9-12.2 53.8-12.2h120.8l26.5-332c-12.4-0.7-25.9-7.1-37.5-18.7-9.5-9.5-15.7-20.2-17.9-31.1-2.7-12.9 0.7-25.2 9.2-33.7 8.5-8.5 20.8-11.8 33.7-9.2 10.9 2.2 21.7 8.4 31.1 17.9 4.7 4.7 8.6 9.7 11.5 14.9 3.3-1.9 6.8-3.4 10.4-4.7V83.2c0-9.7 7.9-17.6 17.6-17.6 9.7 0 17.6 7.9 17.6 17.6v30.5h6.6V83.2c0-9.7 7.9-17.6 17.6-17.6s17.6 7.9 17.6 17.6v30.5h79.7z" fill="#663333" /><path d="M756.4 145.4c17 0 30.9 13.9 30.9 30.9s-13.9 30.9-30.9 30.9h-28.1c-6.4 0-12.2 3.9-14.6 9.8-4.6 11.2-15.5 18.5-27.6 18.5-1.5 0-3.1-0.1-4.6-0.4-4.7-0.8-9.6 0.7-13.1 3.9-3.6 3.2-5.4 7.9-5.1 12.7l1.5 24c-26.6 9.4-45.2 34.6-45.2 63.7 0 32.2 22.9 59.3 53.4 66l7.9 231.9c0 20-6.3 38.9-18.1 54.9-13.9 18.7-34.1 31.4-56.9 35.7h-0.2l-0.5 0.1c-7.1 1.4-12.4 7.5-12.7 14.8l-8.1 184.5h-17.1l-8-182.6c-0.4-8.5-7.3-15.1-15.8-15.1H373c-8.5 0-15.4 6.7-15.8 15.1l-7.7 175.8h-17.7s-12.4-281-12.4-283.2c0-23.7 8.9-46.1 25.2-63.3 6.5 26.3 31.6 46 61.5 46 34.8 0 63.1-26.7 63.1-59.5 0-5.3-0.7-10.5-2.1-15.4h80c0.3 0 0.6 0 0.9-0.1 36.7-0.3 66.5-30.3 66.5-67 0-28.2-17.2-52.5-42.5-62.4 0 0 19.6-245.3 19.7-245.8 0.8-13.6 12.2-24.3 25.9-24.3l138.8-0.1z" fill="#FFCC66" /><path d="M665.3 157.9c9.5 0 17.2 7.7 17.2 17.2s-7.7 17.2-17.2 17.2-17.2-7.7-17.2-17.2 7.7-17.2 17.2-17.2z" fill="#663333" /><path d="M666.9 309.8l3.9 61.4c-11.7-6-19.6-18.1-19.6-31.9 0-12.1 6.1-23 15.7-29.5z" fill="#B88D5B" /><path d="M650.1 642.6c3.2 16.8-1 32.3-11.3 42.7-8.4 8.4-19.6 12.4-31.7 12.4-17.4 0-36.7-8.3-52.5-24.1-12.1-12.1-20.2-26.8-23-41.6-3.2-16.8 1-32.3 11.3-42.7 10.4-10.4 25.9-14.5 42.7-11.3 7.4 1.4 14.8 4.1 21.8 8 7 3.9 13.8 9 19.8 15 12 12 20.1 26.8 22.9 41.6z" fill="#663333" /><path d="M619 648.4c0.6 3 1.4 10.4-2.6 14.4-4.1 4.1-11.4 3.2-14.4 2.6-8.5-1.6-17.6-6.8-25.1-14.3-7.5-7.5-12.7-16.6-14.3-25.1-0.6-3-1.4-10.4 2.6-14.4 2.5-2.5 6.2-3.1 9.4-3.1 2.1 0 3.9 0.3 5.1 0.5 8.5 1.6 17.6 6.8 25.1 14.3 7.4 7.5 12.6 16.7 14.2 25.1zM569.3 450c8.3 6.5 13.6 16.6 13.6 27.9 0 13.3-7.4 24.9-18.3 30.9l4.7-58.8z" fill="#B88D5B" /><path d="M555.2 128.8c9.7 9.2 10.7 18.1 8.7 20.1s-10.7 0.8-20.1-8.7c-4.9-4.9-8.3-10.4-9.2-15.1-0.3-1.4-0.6-3.8 0.6-5 0.7-0.6 1.7-0.8 2.7-0.8 0.8 0 7.2 0 17.3 9.5z" fill="#FFCC66" /><path d="M432.3 545c3.4 4.5 5.3 9.8 5.3 15.4 0 15.4-14.1 27.9-31.5 27.9s-31.5-12.5-31.5-27.9c0-2.8 0.5-5.6 1.4-8.2 11.3-4.8 23.3-7.2 35.8-7.2h20.5z" fill="#B88D5B" /><path d="M420.2 761.2l-7.3 164.4h-13.6l-5.9-164.4zM656.3 741.1L648 925.6h-13.6l-5.7-171.1c9.8-3.4 19-7.9 27.6-13.4z" fill="#FFCC66" /></svg>