<?xml version="1.0" encoding="utf-8"?>
<!-- Uploaded to: SVG Repo, www.svgrepo.com, Generator: SVG Repo Mixer Tools -->
<svg width="800px" height="800px" viewBox="-38.75 0 367.21 367.21" xmlns="http://www.w3.org/2000/svg"><defs><style>.a{fill:#ad7b59;}.b{fill:#ffffff;}.c{fill:#211715;}.d{fill:#f4b467;}.e{fill:#c6c6c6;}</style></defs><path class="a" d="M130.33,14.332a23.732,23.732,0,0,0-1.8,2.293c-3.656,5.3-4.206,12.151-7.98,17.555-4.358,6.24-12.63,12.968-17.261,20.829-12.289,20.859,2.573,42.6-2.572,66.355-1.557,7.186-3.749,16.094-.648,23.313,3.227,7.511,12.216,24.021,1.179,37.124a83.92,83.92,0,0,0,1.926,15.889c6.83,2.685,116.093-.873,116.093-.873a84.85,84.85,0,0,0,36.129-9.828c2.1-1.241,9.969-6.873,9.98-11.17,0-.3-4.484-6.556-4.573-7.761-.144-1.949,2.508-4.081,2.337-5.685-.676-6.364-9.046-14.178-10.225-21.562-2.757-17.267,8.753-27.321,7.409-44.843-1.214-15.815-4.529-31.555-16.4-42.2-10.815-9.7-10.549-23.229-17.452-33.745a51.736,51.736,0,0,0-6.5-7.262C206.421.76,181.865-.329,168.118,6.543c-1.363.328-4.419.828-5.629,1.046C153.264,5.754,139.109,4.446,130.33,14.332Z"/><path class="b" d="M195.693,46.4c-6.347-3.488-14.2-2.978-22.425,3.281-6.851,5.212-7.813,10.888-12.59,17.345-7.938,10.73-31.333,6.733-33.474,25.4l-2.389-2.154a8.116,8.116,0,0,0-6.493-1.9,7.665,7.665,0,0,0-5.51,3.663,10.824,10.824,0,0,0-1.135,4.359,32.477,32.477,0,0,0,3.311,17.211,20.632,20.632,0,0,0,5.336,7,13.676,13.676,0,0,0,6.363,2.868l2.074.318a55.206,55.206,0,0,0,10.522,20.541A48.011,48.011,0,0,0,154.5,156.811a72.66,72.66,0,0,1-1.154,13.023c-.653,3.727-.449,7.058-5.63,8.929-.166.06-.818.277-1.56.524,4.749,4.11,25.407,20.6,31.787,20.649,5.674.046,27.369-13.083,33.912-19.728-1.706-.665-3.537-1.377-3.724-1.445-5.182-1.871-4.977-5.2-5.63-8.929a73.8,73.8,0,0,1-1.15-11.79c14.326-5.022,26.048-24.555,28.029-29.934.288-.873.874-2.517,1.4-4.476l1.085-.166a13.681,13.681,0,0,0,6.363-2.868,20.658,20.658,0,0,0,5.336-7,32.467,32.467,0,0,0,3.31-17.211,10.839,10.839,0,0,0-1.134-4.359,7.665,7.665,0,0,0-5.51-3.663,8.038,8.038,0,0,0-6.88,2.278c-9.141-4.758-13.56-7.786-19-15.769-5.066-7.437-7.816-19.335-12.038-23.78Z"/><path class="c" d="M200.613,52.79a14.833,14.833,0,0,1,1.924,2.821c.74,1.338,1.381,2.73,1.994,4.13,1.421,3.243,2.685,6.553,4.162,9.771a44.31,44.31,0,0,0,11.963,16.067,60.918,60.918,0,0,0,9.665,6.18c2.722,1.459,5.149-2.683,2.423-4.145-5.564-2.982-10.579-6.332-14.477-11.382-4.287-5.553-6.627-12.055-9.38-18.429a28.934,28.934,0,0,0-4.88-8.407c-2.1-2.271-5.491,1.129-3.394,3.394Z"/><path class="c" d="M152.088,158.25a68.9,68.9,0,0,1-.666,8.477,62.674,62.674,0,0,1-1.04,6.214c-.047.187-.1.373-.154.557-.016.051-.211.611-.112.36s-.138.288-.164.337a5.822,5.822,0,0,1-.36.6c.185-.266-.066.081-.151.171a6.327,6.327,0,0,1-.453.444,6,6,0,0,1-1.063.666,32.446,32.446,0,0,1-4.605,1.634,2.456,2.456,0,0,0-1.676,2.952,2.423,2.423,0,0,0,2.952,1.676,37.077,37.077,0,0,0,5.893-2.191,9.048,9.048,0,0,0,4.332-5.259,40.84,40.84,0,0,0,1.169-6.469,79.035,79.035,0,0,0,.9-10.165c.06-3.09-4.74-3.09-4.8,0Z"/><path class="c" d="M198.949,158.25A91.894,91.894,0,0,0,200.27,171c.413,2.583.769,5.08,2.541,7.14,1.6,1.859,3.905,2.632,6.118,3.491,1.753.682,3.514,1.349,5.257,2.058a2.415,2.415,0,0,0,2.952-1.676,2.458,2.458,0,0,0-1.676-2.952c-1.541-.627-3.1-1.218-4.647-1.821s-3.353-1.11-4.441-2.3a4.508,4.508,0,0,1-.966-2.189c-.252-1.084-.372-2.194-.553-3.29a78.223,78.223,0,0,1-1.106-11.212c-.061-3.085-4.862-3.095-4.8,0Z"/><path class="c" d="M161.372,4.945a50.513,50.513,0,0,0-17.912-.372A26.2,26.2,0,0,0,126.9,14.8c-2.311,3.141-3.552,6.873-4.833,10.514a30.465,30.465,0,0,1-4.987,9.5c-4.849,5.934-10.677,11.022-14.91,17.462a40.111,40.111,0,0,0-6.28,21.7c-.1,7.539,1.337,15.006,2.4,22.441,1.065,7.456,1.782,15.157.448,22.627-1.409,7.889-3.969,15.924-1.79,23.941a63.972,63.972,0,0,0,2.925,7.25,69.346,69.346,0,0,1,2.86,8.186c1.558,5.715,2.264,12.248-.482,17.731a17.807,17.807,0,0,1-2.7,3.954c-2.062,2.291,1.322,5.7,3.394,3.394,9.31-10.341,5.825-24.465.948-35.987a35.037,35.037,0,0,1-2.721-7.612,32.749,32.749,0,0,1,.491-11.306c.7-3.889,1.717-7.7,2.192-11.634a61.871,61.871,0,0,0,.22-11.531c-.945-14.226-6.25-29.233-1.468-43.272,2.481-7.283,7.762-12.883,12.906-18.4a81.388,81.388,0,0,0,6.918-8.1c2.28-3.2,3.513-6.966,4.808-10.635a25.954,25.954,0,0,1,5.06-9.306,20.335,20.335,0,0,1,7.19-5.027c5.356-2.209,11.334-2.288,17.017-1.651,1.213.136,2.274.3,3.585.529A2.47,2.47,0,0,0,163.049,7.9a2.42,2.42,0,0,0-1.677-2.952Z"/><path class="c" d="M127.343,142.611c-4.976,2.85-6.548,8.037-6.734,13.46-.084,2.435.056,4.871.007,7.306-.012.585-.034,1.169-.076,1.752q-.029.4-.068.794c-.015.149-.032.3-.052.447.047-.352.009-.06-.027.127-.095.493-.19.983-.327,1.467-.067.235-.143.466-.222.7-.045.129-.095.259-.147.386.13-.316.05-.106-.052.079-.148.268-.293.532-.45.795-.053.087-.115.168-.171.252-.153.226.235-.253-.062.08-.186.208-.376.407-.575.6-.1.1-.211.191-.319.282.261-.221.016,0-.126.087a9.587,9.587,0,0,1-3.919,1.458,2.421,2.421,0,0,0-1.676,2.952,2.451,2.451,0,0,0,2.952,1.676,12.081,12.081,0,0,0,7.188-3.82,13.169,13.169,0,0,0,2.719-7.01,54.156,54.156,0,0,0,.185-7.351c-.015-1.261-.019-2.523.049-3.783q.045-.833.137-1.663c.055-.49.022-.164.007-.059.023-.154.046-.307.074-.46.055-.3.113-.6.182-.9a13.49,13.49,0,0,1,.561-1.835c.14-.358-.143.3.02-.043.08-.168.16-.335.247-.5.139-.265.3-.516.452-.771.311-.513.04-.139.371-.51.234-.262.47-.518.727-.757a6.417,6.417,0,0,1,1.548-1.091c2.68-1.535.265-5.684-2.423-4.145Z"/><path class="c" d="M224.409,21.234c3.387,5.56,5.161,11.8,7.485,17.834a55.156,55.156,0,0,0,4.2,8.91,38.187,38.187,0,0,0,6.731,8.027c9.981,9.33,13.44,23.032,14.766,36.18a51.379,51.379,0,0,1,.243,10.5,46.967,46.967,0,0,1-1.962,8.891c-1.781,5.807-4.209,11.439-5.207,17.463a36.914,36.914,0,0,0-.389,9.945,24.669,24.669,0,0,0,3.044,9.518c1.558,2.844,3.429,5.5,5.06,8.3a22.673,22.673,0,0,1,1.824,3.644,11.571,11.571,0,0,1,.52,1.863c.013.074.01.262.023.215.091-.355-.181.284-.239.386a13.921,13.921,0,0,0-1.987,3.944,4.944,4.944,0,0,0,.64,3.5,61.192,61.192,0,0,0,3.36,5.38c.2.3.377.619.584.913a1.557,1.557,0,0,1,.148.255c.013-.014-.22-.6-.239-.669-.065-.251.059-.375-.034-.275a3.775,3.775,0,0,0-.229.8c.107-.28-.14.276-.182.356a10.9,10.9,0,0,1-.895,1.4,27.358,27.358,0,0,1-5.4,5.01c-.676.492-1.366.97-2.084,1.4-2.65,1.583-.239,5.734,2.422,4.145a37.346,37.346,0,0,0,5.459-4.085,18.548,18.548,0,0,0,5.1-6.426,4.841,4.841,0,0,0,.259-4.013,18.719,18.719,0,0,0-1.121-1.775c-.637-.971-1.277-1.94-1.89-2.927-.259-.416-.515-.835-.758-1.261-.121-.212-.236-.428-.352-.643-.043-.081-.08-.166-.125-.247-.2-.353.026.137.052.146-.312-.1.154-.394-.065-.19-.06.056.084.151.045.211.023-.036.07-.254.093-.283a17.2,17.2,0,0,0,1.1-1.824,6.076,6.076,0,0,0,.973-4.567c-.513-2.944-2.153-5.688-3.7-8.2a92.278,92.278,0,0,1-5.134-8.687,20.636,20.636,0,0,1-1.657-9.18c.066-6.245,2.187-12.118,4.192-17.954,2.152-6.26,3.919-12.659,3.738-19.343a94.041,94.041,0,0,0-3.1-21.258,52.812,52.812,0,0,0-8.851-18.777c-2.218-2.885-4.943-5.156-7.375-7.829a33.143,33.143,0,0,1-5.272-8.15c-2.845-5.985-4.469-12.468-7.265-18.479a45.686,45.686,0,0,0-2.408-4.513c-1.6-2.634-5.758-.225-4.145,2.423Z"/><path class="c" d="M171.024,7.847a28.228,28.228,0,0,1,3.527-1.275,42.189,42.189,0,0,1,4.59-1.055,54.628,54.628,0,0,1,9.906-.721,53.7,53.7,0,0,1,20.268,3.89,28.734,28.734,0,0,1,8.965,5.771c2.209,2.162,5.607-1.229,3.394-3.394-5.31-5.195-12.529-8.113-19.7-9.641A64.569,64.569,0,0,0,179.2.674,38.924,38.924,0,0,0,168.6,3.7a2.42,2.42,0,0,0-.861,3.284,2.457,2.457,0,0,0,3.284.861Z"/><path class="c" d="M229.582,148.065c3.88,3.3,4.98,8.419,6.151,13.148,1.222,4.931,2.568,10.253,6.479,13.8,2.285,2.07,5.69-1.315,3.4-3.394-3.555-3.22-4.42-8.4-5.559-12.945-1.28-5.1-2.916-10.469-7.072-14a2.465,2.465,0,0,0-3.394,0,2.422,2.422,0,0,0,0,3.4Z"/><path class="c" d="M129.551,92.937a14.64,14.64,0,0,1,2.256-6.711,15.088,15.088,0,0,1,4.385-4.173,27.99,27.99,0,0,1,2.951-1.623,31.51,31.51,0,0,1,2.95-1.252c2.263-.865,4.57-1.607,6.855-2.411,4.383-1.54,8.994-3.311,12.3-6.717,4.759-4.909,6.479-11.97,11.446-16.734,5.731-5.5,14.343-8.852,21.791-4.848,2.721,1.463,5.148-2.68,2.423-4.145-7.334-3.942-15.64-2.716-22.507,1.649a30.262,30.262,0,0,0-9.158,8.9c-2.049,3.1-3.6,6.5-5.681,9.588a14.333,14.333,0,0,1-4.709,4.523,30.568,30.568,0,0,1-3.2,1.636c-.438.2-.076.04-.417.18q-.391.16-.786.315c-.608.239-1.22.467-1.835.69-4.828,1.745-9.9,3.119-14.331,5.788a20.476,20.476,0,0,0-6.411,5.908,19.892,19.892,0,0,0-3.113,9.434,2.417,2.417,0,0,0,2.4,2.4,2.454,2.454,0,0,0,2.4-2.4Z"/><path class="d" d="M264.6,209.237c-3.151-5.6-7.6-10.844-9.911-12.533-11.026-8.078-25.614-14.319-41.561-17.974-4.2,5.91-29.054,21.256-35.187,21.206-7.668-.062-35.956-23.861-32.478-21.393-16.275,3.626-31.178,9.944-42.394,18.161-2.307,1.689-6.222,6.935-9.373,12.533A75.6,75.6,0,0,0,88.8,221.026l32.983,84.108c.493,3.334-.4,13.565-2.791,29.077-.363,2.352-3.559,26.546-4.334,30.124a4.661,4.661,0,0,0-.073.475H245.651c-.428-2.682-4.085-26.121-5.463-34.885l-.112-1.089a79.4,79.4,0,0,0,9.463,1.265c7.561.256,32.559,5.629,36.9-16.7a111.557,111.557,0,0,0,.166-26.37c-1.623-15.042-9.964-54.363-22-77.79"/><path class="c" d="M120.67,339.42c1-7.29,2.176-14.554,2.956-21.874.455-4.272,1.074-8.763.471-13.05a2.414,2.414,0,0,0-2.952-1.676,2.461,2.461,0,0,0-1.676,2.952c-.134-.952,0,.114.009.35.022.366.031.733.035,1.1.009.872-.018,1.745-.057,2.616-.118,2.575-.357,5.145-.63,7.708-.735,6.893-1.845,13.733-2.785,20.6a2.484,2.484,0,0,0,1.677,2.953,2.418,2.418,0,0,0,2.952-1.677Z"/><path class="c" d="M116.972,364.974c.759-3.58,1.16-7.259,1.672-10.879.691-4.889,1.357-9.782,2.026-14.675a2.484,2.484,0,0,0-1.676-2.952,2.418,2.418,0,0,0-2.953,1.676c-.668,4.893-1.334,9.786-2.026,14.675-.511,3.62-.913,7.3-1.671,10.878-.639,3.014,3.987,4.3,4.628,1.277Z"/><path class="c" d="M237.874,330.563q2.394,15.234,4.769,30.469.345,2.208.694,4.416a2.419,2.419,0,0,0,2.953,1.677,2.46,2.46,0,0,0,1.676-2.953c-1.454-9.107-2.854-18.224-4.28-27.335q-.591-3.775-1.184-7.55a2.417,2.417,0,0,0-2.952-1.676,2.458,2.458,0,0,0-1.676,2.952Z"/><path class="c" d="M242.742,228.818a128.542,128.542,0,0,1-1.062,26.891c-1.217,8.624-3.065,17.141-4.815,25.669a2.459,2.459,0,0,0,1.676,2.952,2.424,2.424,0,0,0,2.952-1.676c3.652-17.788,7.321-35.57,6.049-53.836a2.457,2.457,0,0,0-2.4-2.4,2.421,2.421,0,0,0-2.4,2.4Z"/><path class="c" d="M213.205,181.212a126.791,126.791,0,0,1,23.587,7.919,102.751,102.751,0,0,1,10.181,5.337q2.44,1.465,4.784,3.084.553.384,1.1.776c.155.111.31.222.464.336.5.365-.237-.2.092.068.485.4.94.832,1.383,1.276a49.261,49.261,0,0,1,7.728,10.441c1.528,2.684,5.676.269,4.145-2.423a58.274,58.274,0,0,0-7.352-10.219,37.215,37.215,0,0,0-7.9-6.233A111.1,111.1,0,0,0,228.865,180.8a137.446,137.446,0,0,0-14.384-4.212c-3-.71-4.285,3.918-1.276,4.629Z"/><path class="c" d="M91.115,221.664A51.707,51.707,0,0,1,96.35,209.43c2.176-3.729,4.612-7.716,7.882-10.6.053-.048.368-.308.045-.052.2-.157.414-.3.618-.448q.626-.448,1.259-.886,1.448-1,2.935-1.934,2.891-1.824,5.91-3.43a108.128,108.128,0,0,1,12.907-5.829,135.97,135.97,0,0,1,16.641-5.037c3-.71,1.733-5.34-1.276-4.629a128.339,128.339,0,0,0-29.6,10.777,85.136,85.136,0,0,0-11.9,7.336c-3.615,2.711-6.263,6.914-8.6,10.707a61.886,61.886,0,0,0-4.054,8,51.816,51.816,0,0,0-2.627,6.985c-.805,2.986,3.824,4.26,4.629,1.276Z"/><path class="c" d="M142.762,178.364c-.2,1.474,1.892,2.8,2.846,3.6,1.959,1.638,3.958,3.23,5.975,4.8a160.572,160.572,0,0,0,16.785,11.791,32.164,32.164,0,0,0,7.163,3.389,10.085,10.085,0,0,0,6.249-.382c6.334-2.146,12.294-5.746,17.917-9.3a120.381,120.381,0,0,0,9.915-6.934c2.1-1.649,4.4-3.438,5.825-5.748,1.624-2.638-2.526-5.051-4.144-2.422-.091.148-.2.285-.289.432.15-.239.206-.232-.082.091-.338.379-.681.751-1.044,1.108-.9.881-1.856,1.7-2.833,2.488-2.087,1.687-4.885,3.651-7.445,5.339q-4.443,2.928-9.089,5.535c-1.465.82-2.945,1.612-4.446,2.363q-.948.474-1.907.923c-.32.149-.64.3-.963.44-.154.069-1.061.455-.65.285a26.6,26.6,0,0,1-3.182,1.128c-.418.113-.839.183-1.261.274.829-.178-.259-.045-.56-.045.283,0,.4.092-.047-.024-.182-.047-.365-.085-.546-.135-.518-.142-1.019-.333-1.521-.524-.357-.136.345.166-.263-.114-.265-.122-.53-.242-.793-.369-.6-.29-1.194-.6-1.78-.916a126.012,126.012,0,0,1-15.7-10.6c-2.206-1.673-4.532-3.5-6.889-5.436-.73-.6-1.457-1.2-2.171-1.822-.216-.188-.424-.387-.644-.57a2.348,2.348,0,0,0-.211-.2c-.019-.012-.031-.044-.051-.052.31.113.668,1.4.639,1.611a2.411,2.411,0,0,0-2.4-2.4,2.462,2.462,0,0,0-2.4,2.4Z"/><path class="c" d="M114.585,367.21H245.114c3.089,0,3.094-4.8,0-4.8H114.585c-3.088,0-3.093,4.8,0,4.8Z"/><path class="e" d="M2.589,220.92a3.534,3.534,0,0,1,3.458-2.343c27.277.964,106.246,4.85,127.3,5.889a5.144,5.144,0,0,1,4.825,4.308c3.126,18.955,14.566,84.791,17.6,101.9l.258,1.453a12.189,12.189,0,0,1-1.718.769,15.385,15.385,0,0,1-5.081.7c-43.851-2.522-82.152-6.509-125.747-9.092a5.42,5.42,0,0,1-5.034-4.5C14.854,298.71,5.6,242.566,2.43,222.665A3.515,3.515,0,0,1,2.589,220.92Z"/><path class="b" d="M150.16,258.219l-6.932.314c2.12,12.323,4.529,26.237,6.707,38.772,1,.2,1.606.327,1.606.327l7.74,1.57c2.58.58,9.61,2.36,16.46,4.253,2.04-6.6,4.916-15.859,7.073-22.859q-.8-.236-1.6-.465l-8.327-14.421c-1.448-2.508-3-5.127-5.506-6.583-2.453-1.428-10.121-1.052-12.958-1.1Z"/><path class="e" d="M152.829,313.919c-.876-5.015-1.858-10.66-2.893-16.616l1.606.326,7.743,1.575c4.487,1,22.4,5.637,29.385,8.178l-1.952,1.579c-8.914,7.216-25.22,19.489-29.075,22.177a14.216,14.216,0,0,1-1.618.991l-.257-1.45C155.119,327.014,154.085,321.114,152.829,313.919Z"/><path class="c" d="M155.308,333.9c3.458-2.812,2.092-7.72,1.439-11.444q-.858-4.9-1.712-9.792-2.157-12.353-4.3-24.707-4.318-24.9-8.569-49.8-.7-4.138-1.393-8.28a10.037,10.037,0,0,0-1.993-5.213,8.05,8.05,0,0,0-6.052-2.624q-8.055-.4-16.111-.792-24.662-1.206-49.324-2.374-24.633-1.161-49.271-2.224-4.527-.187-9.054-.361a15.287,15.287,0,0,0-4.734.135A5.954,5.954,0,0,0,.029,222.66c.311,3.045.96,6.092,1.448,9.113q.9,5.554,1.805,11.108,4.361,26.741,8.8,53.468,1.818,10.964,3.654,21.925a12.506,12.506,0,0,0,1.509,5.093c1.7,2.567,4.293,3.423,7.228,3.6q9.965.6,19.923,1.3c26,1.828,51.975,4.122,77.978,5.985q9.913.709,19.834,1.327c3.034.187,6.2.655,9.232.327a15.731,15.731,0,0,0,7.514-2.763c6.458-4.5,12.673-9.383,18.9-14.187,3.545-2.734,7.081-5.483,10.562-8.3a2.417,2.417,0,0,0,0-3.394,2.456,2.456,0,0,0-3.394,0c-6.941,5.613-14.053,11.019-21.2,16.37-2.414,1.808-4.82,3.641-7.3,5.365a11.365,11.365,0,0,1-6.406,2.2c-3.106.089-6.289-.319-9.39-.513-25.274-1.581-50.506-3.741-75.754-5.694C52.14,324,39.3,323.068,26.443,322.285c-1.911-.117-4.48.177-5.421-1.938a19.158,19.158,0,0,1-.838-4.407q-.822-4.9-1.638-9.8-4.279-25.7-8.489-51.408Q8.141,243.042,6.244,231.35q-.7-4.308-1.387-8.615c-.081-.508-.241-.867.219-1.39.429-.488,1.061-.365,1.666-.343q1.908.069,3.816.143c14.8.571,29.6,1.26,44.4,1.947q25.167,1.168,50.33,2.4,9.855.478,19.71.963l7.088.349c1.287.064,2.526.1,3.308,1.3.653,1,.671,2.563.866,3.733,2.424,14.523,4.942,29.031,7.449,43.54q4.087,23.646,8.222,47.284.338,1.929.677,3.858c.241,1.37.487,3.025-.694,3.986a2.415,2.415,0,0,0,0,3.394,2.456,2.456,0,0,0,3.394,0Z"/><path class="b" d="M57.375,298.985c-.521-2.459-2.549-5.181-5.9-4.571-2.1.382-3.455,2.151-3.613,4.679-.213,3.395.519,7.233,1.733,13.476.93,4.787,2.122,10.328,3.36,14.856,1.984,4.619,4.874,7.653,9.126,8.276,2.607.453,18.888,2.016,26.209,1.7,6.307-.641,15.772-.565,15.7-7.363-2.352-.694-4.429-2-5.34-2.159a15.938,15.938,0,0,1-.767-2.395c-1-4.181-3.593-11.809-6.148-13.507-2.051-1.364-5.557-1.386-6.589,1.353,0,0-.29.77-.734,1.956-.3-1.174-.608-2.395-.918-3.693a127.486,127.486,0,0,0-4.016-13.029,6.381,6.381,0,0,0-4.244-4.244c-2.194-.769-5.483.636-5.837,3.4l-.387,3.025L67.8,295.3c-1.368-6.09-5.207-7.747-8.012-6.752-3.154,1.119-3.82,4.492-2.618,9.444"/><path class="c" d="M87.47,313.966c-.184.448.166-.638.087-.087.2-.185.2-.2-.013-.037a3.417,3.417,0,0,1,.35-.219c.248-.123.246-.125,0-.007a3.982,3.982,0,0,1,.4-.114c.279-.052.275-.057-.011-.012.142-.012.285-.018.428-.018s.288,0,.431.017c-.279-.047-.276-.045.006.005.283.069.558.139.834.231-.476-.159.279.154.381.211.336.191.276.263.042.008.149.161.318.312.471.471.08.091.158.183.234.278q-.27-.352-.025-.019c.316.492.633.976.913,1.49a25.322,25.322,0,0,1,1.489,3.259c.949,2.46,1.573,4.979,2.307,7.5a9.936,9.936,0,0,0,.8,2.162,2.605,2.605,0,0,0,1.568,1.131c.094.034.778.292.3.087,1.564.673,3.07,1.451,4.7,1.98a2.4,2.4,0,0,0,1.276-4.629c-1.733-.563-3.352-1.715-5.128-2.095l1.676,1.676c-.919-2.329-1.365-4.837-2.178-7.21a34.3,34.3,0,0,0-3.223-7.257,7.945,7.945,0,0,0-5.58-3.974,6.279,6.279,0,0,0-7.151,3.893,2.415,2.415,0,0,0,1.676,2.953,2.46,2.46,0,0,0,2.952-1.677Z"/><path class="c" d="M88.983,323.285c-2.008-8.063-3.923-16.208-6.7-24.045A14.356,14.356,0,0,0,80,294.662a8.661,8.661,0,0,0-4.637-2.8c-3.537-.761-7.631,1.519-8.265,5.211a2.47,2.47,0,0,0,1.676,2.952,2.419,2.419,0,0,0,2.953-1.676,2.24,2.24,0,0,1,2.626-1.8,4.325,4.325,0,0,1,1.61.81,5.306,5.306,0,0,1,1.421,2.4c.516,1.418,1,2.847,1.464,4.282,2.177,6.726,3.8,13.662,5.511,20.52.746,3,5.376,1.727,4.629-1.276Z"/><path class="c" d="M76.957,323.179c-1.909-7.84-3.822-15.68-5.683-23.532-.777-3.277-1.213-7.021-3.172-9.837-2.02-2.905-5.55-4.8-9.082-3.523-5.266,1.9-5.244,7.743-4.165,12.347.705,3.006,5.334,1.734,4.628-1.276a11.024,11.024,0,0,1-.324-4.883,2.366,2.366,0,0,1,.584-1.153c.225-.227.028-.093.407-.307a2.007,2.007,0,0,1,.663-.268,3.385,3.385,0,0,1,.4-.085c-.117.019-.461.012-.023.024.169,0,.9.086.413-.006a5.147,5.147,0,0,1,.742.2c.358.126-.291-.152.056.029.177.091.349.188.516.3a1.785,1.785,0,0,1,.5.425,5.986,5.986,0,0,1,.547.609,8.086,8.086,0,0,1,1.084,2.15c.886,2.61,1.331,5.439,1.969,8.119q1.27,5.331,2.564,10.656,1.367,5.646,2.742,11.29c.73,3,5.36,1.729,4.629-1.276Z"/><path class="c" d="M50.888,328.636c2.009,4.578,5.491,8.565,10.643,9.394,3.149.506,6.353.75,9.528,1.019,8.579.725,17.227,1.317,25.762-.177,4.781-.837,9.41-3.273,9.579-8.689.1-3.089-4.7-3.086-4.8,0a2.731,2.731,0,0,1-.427,1.587,3.522,3.522,0,0,1-1.1,1.026,14.36,14.36,0,0,1-4.83,1.5,60.115,60.115,0,0,1-10.39.738c-7.267-.107-14.518-.8-21.738-1.582-.331-.036.512.086-.121-.019-.367-.061-.733-.116-1.095-.2A7.575,7.575,0,0,1,59.129,332a13.568,13.568,0,0,1-4.1-5.786,2.416,2.416,0,0,0-3.283-.861,2.46,2.46,0,0,0-.861,3.284Z"/><path class="c" d="M65.5,321.976q-1.722-6.687-3.373-13.391-.81-3.282-1.595-6.57a42.18,42.18,0,0,0-1.132-4.666,7.972,7.972,0,0,0-5.175-5.183,6.844,6.844,0,0,0-7.159,2.329c-2.857,3.7-1.459,9.57-.712,13.767,1.181,6.643,2.528,13.287,4.3,19.8.808,2.977,5.44,1.714,4.628-1.276-1.393-5.134-2.485-10.345-3.5-15.565-.753-3.88-1.916-8.136-1.51-12.129.139-1.371.887-2.536,2.358-2.372,1.563.174,2.2,1.847,2.487,3.142.746,3.344,1.562,6.672,2.382,10q1.654,6.7,3.374,13.391c.77,2.989,5.4,1.722,4.628-1.276Z"/><path class="c" d="M79.468,270.053c.188.009.376.026.564.038-.557-.035-.139-.025.016.008.339.073.674.144,1.006.249.12.038.237.084.356.121.586.184-.421-.238.12.05a11.113,11.113,0,0,1,.979.557c.015.009.493.381.212.144s.18.168.189.176a9.118,9.118,0,0,1,.651.682c-.377-.425.019.035.079.126.089.134.172.272.251.412s.15.288.224.433c-.255-.5.045.134.086.261a6.83,6.83,0,0,1,.261,1.112c-.067-.47-.014-.083-.014.01,0,.226.021.451.017.678a3.418,3.418,0,0,0-.025.5c.05.337.125-.519,0,.028-.083.355-.175.689-.289,1.034.2-.606-.1.157-.2.33-.085.139-.179.271-.275.4.346-.482.128-.16.015-.053-.214.2-.418.407-.643.6.052-.045.445-.3.1-.09-.183.113-.36.234-.548.338-.159.089-.96.419-.307.176-.257.1-.512.191-.775.27s-.531.146-.8.2c-.162.034-.325.06-.487.091-.525.1.476-.035-.015,0a14.113,14.113,0,0,1-1.769.043,5.17,5.17,0,0,0-.767-.066c.529-.061.356.057.1,0-.23-.048-.457-.1-.683-.162-.157-.047-.312-.12-.47-.161-.34-.088.449.266-.061-.038-.283-.169-.568-.327-.845-.509.457.3-.055-.049-.13-.117-.123-.109-.241-.224-.356-.342s-.221-.244-.331-.368c.357.4-.085-.129-.152-.235-.089-.14-.174-.283-.253-.43-.042-.077-.3-.678-.1-.156a7.341,7.341,0,0,1-.3-.972s-.121-.663-.067-.294-.017-.312-.017-.31q-.013-.322,0-.645c.006-.114.1-.737.012-.242a7.706,7.706,0,0,1,.339-1.251c-.186.512.054-.081.1-.162.095-.174.207-.335.31-.5.314-.52-.324.3.1-.13.137-.137.262-.283.4-.416s.285-.259.435-.379c-.43.342.035,0,.14-.071a8.823,8.823,0,0,1,1.014-.545c-.534.249.042-.006.138-.039.18-.062.363-.118.546-.168s.367-.094.552-.132c.123-.025.246-.048.37-.068q-.45.056-.177.025c.392,0,.783-.055,1.179-.047a2.422,2.422,0,0,0,2.4-2.4,2.448,2.448,0,0,0-2.4-2.4,10.03,10.03,0,0,0-9.7,6.066,9.339,9.339,0,0,0,4.107,11.246c3.126,1.762,7.2,1.536,10.414.139a8.448,8.448,0,0,0,3.8-3.275,9.127,9.127,0,0,0,1.016-6.177c-.7-4.725-5.069-7.8-9.638-8a2.417,2.417,0,0,0-2.4,2.4A2.45,2.45,0,0,0,79.468,270.053Z"/><path class="c" d="M235.429,91.961a5.642,5.642,0,0,1,7.864.691c1.081,1.392,1.189,3.371,1.264,5.057a29.111,29.111,0,0,1-.349,6.186c-1.228,7.161-5.006,15.888-12.985,17.259a2.419,2.419,0,0,0-1.676,2.952,2.455,2.455,0,0,0,2.952,1.676c8.2-1.409,13.087-9.122,15.36-16.515a34.292,34.292,0,0,0,1.461-12.22c-.26-3.975-1.464-7.714-5.118-9.8a10.619,10.619,0,0,0-12.167,1.315,2.421,2.421,0,0,0,0,3.394,2.449,2.449,0,0,0,3.394,0Z"/><path class="c" d="M229.378,117.426a27.385,27.385,0,0,1-1.29,6.88c-.259.866-.543,1.724-.831,2.581-.077.232-.152.465-.236.694-.036.1-.08.19-.113.288-.173.5.14-.309.029-.068a57.989,57.989,0,0,1-3.591,6.57,64.7,64.7,0,0,1-14.45,16.666,27.493,27.493,0,0,1-10.7,5.414c-3.01.691-1.736,5.32,1.276,4.628,8.082-1.856,14.852-7.668,20.191-13.758a69.885,69.885,0,0,0,11.267-16.755,35.512,35.512,0,0,0,3.249-13.14c.1-3.09-4.7-3.086-4.8,0Z"/><path class="c" d="M126.512,88.567a10.579,10.579,0,0,0-10.893-1.912c-3.859,1.584-5.761,4.9-6.253,8.916a33.308,33.308,0,0,0,5.823,23,17.359,17.359,0,0,0,10.86,7.207A2.47,2.47,0,0,0,129,124.106a2.419,2.419,0,0,0-1.676-2.952c-7.979-1.371-11.758-10.1-12.986-17.259a29.05,29.05,0,0,1-.356-5.965c.063-1.7.144-3.694,1.175-5.133a5.612,5.612,0,0,1,7.96-.836,2.463,2.463,0,0,0,3.394,0,2.421,2.421,0,0,0,0-3.394Z"/><path class="c" d="M124.7,116.635c2.95,17.027,12.174,33.7,27.947,41.923a37.9,37.9,0,0,0,13.716,4.109,2.416,2.416,0,0,0,2.4-2.4,2.454,2.454,0,0,0-2.4-2.4c-16.286-1.687-28.98-16.284-34.1-30.955a72.74,72.74,0,0,1-2.934-11.553,2.419,2.419,0,0,0-2.952-1.676,2.455,2.455,0,0,0-1.676,2.952Z"/><path class="c" d="M191.569,280.851q-4.824-1.625-9.715-3.035l1.434,1.1-6.612-11.451c-1.847-3.2-3.562-6.868-6.472-9.258-4.261-3.5-10.627-2.513-15.779-2.585-3.09-.043-3.092,4.757,0,4.8,3.013.042,6.03-.1,9.036.183a11.5,11.5,0,0,1,1.874.308c.228.057.455.121.676.2.272.1.27.1,0,0a5.683,5.683,0,0,1,.5.295,12.608,12.608,0,0,1,3.607,4.316c2.5,4.176,4.88,8.435,7.315,12.652a16.665,16.665,0,0,0,2.09,3.455c.8.8,2.338.986,3.385,1.3q3.716,1.111,7.389,2.352c2.935.987,4.194-3.647,1.276-4.628Z"/><path class="d" d="M183.534,278.255c1.057-3.443,1.855-6.068,2.151-7.115l.057-.2,2.092.2c7.146.68,41.1,9.894,48.259,12.32L225.854,326c-21.677-4.688-49.671-12.05-52.507-14.736C174.322,307.962,180.211,289.074,183.534,278.255Z"/><path class="c" d="M255.459,281.06c-3.348.006-6.693.149-10.04.208-1.732.031-3.464.044-5.2.009-.806-.017-1.611-.043-2.416-.089-.349-.02-.7-.046-1.046-.07-.019,0-.541-.088-.235-.017.238.055-.016-.029-.06-.044-3.263-1.1-6.594-2-9.905-2.937-9.579-2.7-19.206-5.272-28.9-7.508a91.377,91.377,0,0,0-11.915-2.071,2.415,2.415,0,0,0-2.314,1.762c-3.234,11.4-6.965,22.679-10.461,34-.65,2.1-1.309,4.207-1.934,6.32a2.382,2.382,0,0,0,.617,2.335,13.86,13.86,0,0,0,4.472,2.333c2.351.916,4.762,1.681,7.174,2.42,6.949,2.13,13.989,3.969,21.04,5.729q11.82,2.95,23.742,5.482c6.076,1.279,12.184,2.53,18.35,3.3,1.836.228,3.679.285,5.521.445,2.79.243,5.577.508,8.379.566,6.905.142,14.381-.812,20.044-5.094a21.679,21.679,0,0,0,7.19-9.85,30.839,30.839,0,0,0,1.614-8.217c.288-3.131.474-6.271.516-9.416a136.87,136.87,0,0,0-2.642-26.48c-1.794-9.789-4.059-19.5-6.72-29.09a226.54,226.54,0,0,0-10.6-30.608q-1.437-3.27-3.058-6.453c-1.408-2.75-5.551-.324-4.145,2.423A172.675,172.675,0,0,1,273.5,238.79c2.974,9.733,5.466,19.618,7.538,29.582.85,4.087,1.628,8.19,2.289,12.311q.194,1.206.371,2.413c.056.377.109.754.162,1.131.009.065.108.8.032.229q.042.313.082.627.408,3.2.64,6.42a110.886,110.886,0,0,1-.115,17.2c-.384,4.684-1.154,9.009-4.05,12.764-.147.191-.989,1.132-1.435,1.565a12.122,12.122,0,0,1-1.731,1.452,19.364,19.364,0,0,1-2.006,1.225c-.379.2-.766.385-1.155.568a8.738,8.738,0,0,1-.939.38A28.471,28.471,0,0,1,263.9,328.4c-5.052.226-10.094-.389-15.126-.736-.934-.065-1.862-.178-2.791-.3-.521-.065.458.064.1.014l-.394-.055c-.273-.039-.546-.078-.819-.119q-.972-.146-1.943-.305c-3.065-.5-6.118-1.085-9.163-1.695-7.5-1.5-14.972-3.192-22.413-4.982-7.412-1.783-14.806-3.664-22.137-5.763-2.782-.8-5.558-1.623-8.3-2.539-1.1-.365-2.188-.744-3.267-1.157-.207-.08-.413-.162-.62-.243-.186-.073-.881-.384-.106-.037-.353-.158-.708-.308-1.055-.479-.249-.124-.49-.26-.733-.395-.1-.052-.184-.139-.283-.182-.4-.171.546.468.189.139l.617,2.335c3.387-11.447,7.062-22.811,10.56-34.225.622-2.029,1.256-4.056,1.835-6.1l-2.314,1.762c.687.066,1.375.125,2.061.2.306.032.887.123.186.012.663.105,1.324.206,1.984.328,1.751.324,3.492.7,5.229,1.095,4.764,1.075,9.5,2.269,14.23,3.5,8.419,2.183,16.882,4.361,25.164,7.025,2.907.935,6.376.629,9.4.6,3.822-.041,7.641-.222,11.464-.229,3.088-.006,3.094-4.806,0-4.8Z"/><path class="c" d="M149.293,299.616c8.691,1.748,17.248,3.792,25.8,6.15,2.982.823,4.255-3.807,1.276-4.628-8.552-2.359-17.109-4.4-25.8-6.15a2.461,2.461,0,0,0-2.952,1.676,2.422,2.422,0,0,0,1.676,2.952Z"/><path class="c" d="M201.017,113.186c7.916.23,16.859.028,21.851-7.144,3.8-5.464,4.465-14.733-.588-19.654a7.362,7.362,0,0,0-3.085-1.374q-1.6-.49-3.227-.87a53.023,53.023,0,0,0-6.592-1.08,47.633,47.633,0,0,0-12.956.478c-3.746.645-8.349,1.37-10.568,4.787a14.579,14.579,0,0,0-2.018,8.608,18.333,18.333,0,0,0,5.15,11.745c3.18,3.051,7.722,4.336,12.033,4.5,3.089.12,3.084-4.681,0-4.8-3.323-.13-7.018-1.133-9.256-3.75a13.524,13.524,0,0,1-3.1-9.944,11.491,11.491,0,0,1,.776-2.915c.721-1.623,1.324-1.834,2.984-2.347a41.474,41.474,0,0,1,12.925-1.806,46.218,46.218,0,0,1,14.472,2.645l-1.059-.618c3.557,3.657,2.725,10.423-.228,14.238-4.013,5.184-11.68,4.666-17.514,4.5C197.927,108.3,197.93,113.1,201.017,113.186Z"/><path class="c" d="M140,90.269a45,45,0,0,1,21.231-2.242,41.28,41.28,0,0,1,5.3,1.145,12.416,12.416,0,0,1,2.595.833,5.182,5.182,0,0,1,.535.5,9.5,9.5,0,0,1,1.547,6.05,13.836,13.836,0,0,1-3.03,7.941c-1.806,2.212-4.672,3.283-7.422,3.716a41.031,41.031,0,0,1-10.107.075c-2.881-.284-6-1.137-8.176-3.144-3.938-3.636-5.384-11.41-1.41-15.5,2.155-2.215-1.236-5.613-3.394-3.394-4.967,5.106-4.672,13.942-.808,19.649,4.8,7.081,13.53,7.521,21.306,7.3,3.795-.109,7.753-.891,10.917-3.112a16.9,16.9,0,0,0,6.3-9.483,16.508,16.508,0,0,0-.156-9.518,10.707,10.707,0,0,0-2.355-4.16c-1.4-1.423-3.419-1.927-5.286-2.448a48.7,48.7,0,0,0-28.861,1.157,2.46,2.46,0,0,0-1.677,2.952A2.423,2.423,0,0,0,140,90.269Z"/><path class="c" d="M176.146,97.465c.486-.243-.562.2-.026,0,.171-.063.345-.118.521-.167.369-.1.745-.175,1.123-.241.176-.031.526-.03-.19.021.088-.007.176-.022.263-.031q.336-.038.675-.06.7-.047,1.4-.041.666,0,1.332.053.342.025.684.064c.174.019.535.108-.172-.028.086.017.174.025.261.039.409.064.816.145,1.217.249.164.043.328.09.489.142.2.066.884.354.054,0a2.628,2.628,0,0,0,1.849.242,2.45,2.45,0,0,0,1.435-1.1c.547-1.035.369-2.751-.861-3.284a16,16,0,0,0-6.288-1.169,13.63,13.63,0,0,0-6.183,1.169,2.416,2.416,0,0,0-.861,3.284,2.458,2.458,0,0,0,3.283.861Z"/><path class="c" d="M227.3,94.834l.253-.11-.574.242a23.33,23.33,0,0,1,4.626-1.461,2.422,2.422,0,0,0,1.434-1.1,2.4,2.4,0,0,0-.861-3.284,2.683,2.683,0,0,0-1.849-.242,25.1,25.1,0,0,0-5.452,1.814,2.4,2.4,0,0,0-1.1,1.434,2.457,2.457,0,0,0,.242,1.849,2.422,2.422,0,0,0,1.435,1.1l.638.086a2.385,2.385,0,0,0,1.211-.328Z"/><path class="c" d="M134.377,90.69a25.093,25.093,0,0,0-5.451-1.814,2.573,2.573,0,0,0-1.849.242,2.4,2.4,0,0,0-.861,3.284,2.368,2.368,0,0,0,1.434,1.1,23.321,23.321,0,0,1,4.625,1.461l-.573-.242.253.11a1.774,1.774,0,0,0,.892.285,1.812,1.812,0,0,0,.957-.043,2.445,2.445,0,0,0,1.434-1.1,2.418,2.418,0,0,0,.242-1.849,2.326,2.326,0,0,0-1.1-1.434Z"/><path class="c" d="M170.622,133.8a21.415,21.415,0,0,0,10.319,2.382c3.669-.023,7.407-.732,10.349-3.025a2.413,2.413,0,0,0,0-3.394,2.462,2.462,0,0,0-3.394,0c.708-.552.088-.081-.093.036-.21.134-.427.259-.648.375-.151.079-.908.4-.315.17-.3.113-.592.228-.894.325a15.5,15.5,0,0,1-5.342.714,16.137,16.137,0,0,1-5.1-.687c-.327-.1-.647-.215-.97-.326-.105-.036-.206-.09-.312-.121.588.173.161.072.007,0-.4-.188-.8-.385-1.188-.592a2.451,2.451,0,0,0-3.283.861,2.426,2.426,0,0,0,.861,3.283Z"/><path class="c" d="M179.868,109.3a49.254,49.254,0,0,1,1.158,5.3l-.086-.638a3.2,3.2,0,0,1,.02.731l.086-.638a1.86,1.86,0,0,1-.081.329l.242-.573a1.312,1.312,0,0,1-.116.211l.375-.486a1.076,1.076,0,0,1-.173.171l.486-.375a3.5,3.5,0,0,1-.419.222l.573-.242a3.064,3.064,0,0,1-.707.206l.638-.086a2.783,2.783,0,0,1-.664,0l.638.086c-.25-.035-.5-.1-.746-.13a2.655,2.655,0,0,0-1.849.242,2.4,2.4,0,0,0-.861,3.284,2.3,2.3,0,0,0,1.434,1.1c.542.073,1.067.212,1.618.236a5.112,5.112,0,0,0,2.348-.554,3.322,3.322,0,0,0,1.862-2.2,5.656,5.656,0,0,0-.026-2.4c-.288-1.706-.682-3.4-1.121-5.071a2.4,2.4,0,0,0-4.629,1.276Z"/><path class="c" d="M151.559,94.387c-.884,2.874-.308,9.486,5.138,10.049,7.2-.043,7.579-8.037,5.157-11.8C159.87,89.563,154.038,88.283,151.559,94.387Z"/><path class="c" d="M209.192,94.387c.885,2.874.308,9.486-5.137,10.049-7.2-.044-7.58-8.038-5.157-11.8C200.881,89.563,206.714,88.283,209.192,94.387Z"/></svg>